<mxfile host="Electron" modified="2023-06-01T19:24:17.579Z" agent="Mozilla/5.0 (Macintosh; Intel Mac OS X 10_15_7) AppleWebKit/537.36 (KHTML, like Gecko) draw.io/21.2.8 Chrome/112.0.5615.165 Electron/24.2.0 Safari/537.36" etag="IiwyP2JIUiiooLgeYnNf" version="21.2.8" type="device" pages="2">
  <diagram name="script" id="hJapyy_HGKt27aFXfnqI">
    <mxGraphModel dx="1513" dy="411" grid="1" gridSize="10" guides="1" tooltips="1" connect="1" arrows="1" fold="1" page="1" pageScale="1" pageWidth="850" pageHeight="1100" math="0" shadow="0">
      <root>
        <mxCell id="0" />
        <mxCell id="1" parent="0" />
        <mxCell id="SYU9R7mCOO1fORlbbx4Z-3" style="edgeStyle=orthogonalEdgeStyle;rounded=0;orthogonalLoop=1;jettySize=auto;html=1;entryX=1;entryY=0.5;entryDx=0;entryDy=0;entryPerimeter=0;startArrow=classic;startFill=1;" edge="1" parent="1" source="SYU9R7mCOO1fORlbbx4Z-1" target="SYU9R7mCOO1fORlbbx4Z-2">
          <mxGeometry relative="1" as="geometry" />
        </mxCell>
        <mxCell id="SYU9R7mCOO1fORlbbx4Z-4" value="1.read config history&lt;br&gt;for distribution" style="edgeLabel;html=1;align=center;verticalAlign=middle;resizable=0;points=[];" vertex="1" connectable="0" parent="SYU9R7mCOO1fORlbbx4Z-3">
          <mxGeometry x="-0.052" relative="1" as="geometry">
            <mxPoint as="offset" />
          </mxGeometry>
        </mxCell>
        <mxCell id="SYU9R7mCOO1fORlbbx4Z-1" value="Read records" style="sketch=0;points=[[0,0,0],[0.25,0,0],[0.5,0,0],[0.75,0,0],[1,0,0],[0,1,0],[0.25,1,0],[0.5,1,0],[0.75,1,0],[1,1,0],[0,0.25,0],[0,0.5,0],[0,0.75,0],[1,0.25,0],[1,0.5,0],[1,0.75,0]];points=[[0,0,0],[0.25,0,0],[0.5,0,0],[0.75,0,0],[1,0,0],[0,1,0],[0.25,1,0],[0.5,1,0],[0.75,1,0],[1,1,0],[0,0.25,0],[0,0.5,0],[0,0.75,0],[1,0.25,0],[1,0.5,0],[1,0.75,0]];outlineConnect=0;fontColor=#232F3E;gradientColor=#F34482;gradientDirection=north;fillColor=#BC1356;strokeColor=#ffffff;dashed=0;verticalLabelPosition=bottom;verticalAlign=top;align=center;html=1;fontSize=12;fontStyle=0;aspect=fixed;shape=mxgraph.aws4.resourceIcon;resIcon=mxgraph.aws4.config;" vertex="1" parent="1">
          <mxGeometry x="410" y="196" width="78" height="78" as="geometry" />
        </mxCell>
        <mxCell id="SYU9R7mCOO1fORlbbx4Z-9" style="edgeStyle=orthogonalEdgeStyle;rounded=0;orthogonalLoop=1;jettySize=auto;html=1;entryX=0;entryY=0.5;entryDx=0;entryDy=0;entryPerimeter=0;" edge="1" parent="1" source="SYU9R7mCOO1fORlbbx4Z-2" target="SYU9R7mCOO1fORlbbx4Z-8">
          <mxGeometry relative="1" as="geometry">
            <Array as="points">
              <mxPoint x="68" y="400" />
              <mxPoint x="410" y="400" />
            </Array>
          </mxGeometry>
        </mxCell>
        <mxCell id="SYU9R7mCOO1fORlbbx4Z-11" value="3. update distribution&amp;nbsp;&lt;br&gt;settings" style="edgeLabel;html=1;align=center;verticalAlign=middle;resizable=0;points=[];" vertex="1" connectable="0" parent="SYU9R7mCOO1fORlbbx4Z-9">
          <mxGeometry x="-0.7352" relative="1" as="geometry">
            <mxPoint x="162" y="64" as="offset" />
          </mxGeometry>
        </mxCell>
        <mxCell id="SYU9R7mCOO1fORlbbx4Z-2" value="script" style="sketch=0;aspect=fixed;pointerEvents=1;shadow=0;dashed=0;html=1;strokeColor=none;labelPosition=center;verticalLabelPosition=bottom;verticalAlign=top;align=center;fillColor=#00188D;shape=mxgraph.azure.script_file" vertex="1" parent="1">
          <mxGeometry x="40" y="214" width="56.4" height="60" as="geometry" />
        </mxCell>
        <mxCell id="SYU9R7mCOO1fORlbbx4Z-6" style="edgeStyle=orthogonalEdgeStyle;rounded=0;orthogonalLoop=1;jettySize=auto;html=1;entryX=0;entryY=0.5;entryDx=0;entryDy=0;entryPerimeter=0;exitX=0.5;exitY=1;exitDx=0;exitDy=0;exitPerimeter=0;" edge="1" parent="1" source="SYU9R7mCOO1fORlbbx4Z-2" target="SYU9R7mCOO1fORlbbx4Z-2">
          <mxGeometry relative="1" as="geometry">
            <Array as="points">
              <mxPoint x="78" y="320" />
              <mxPoint x="10" y="320" />
              <mxPoint x="10" y="244" />
            </Array>
          </mxGeometry>
        </mxCell>
        <mxCell id="SYU9R7mCOO1fORlbbx4Z-7" value="2.&lt;br&gt;transform the config json&lt;br&gt;into a Cloudfront json" style="edgeLabel;html=1;align=center;verticalAlign=middle;resizable=0;points=[];" vertex="1" connectable="0" parent="SYU9R7mCOO1fORlbbx4Z-6">
          <mxGeometry x="-0.3182" y="1" relative="1" as="geometry">
            <mxPoint as="offset" />
          </mxGeometry>
        </mxCell>
        <mxCell id="SYU9R7mCOO1fORlbbx4Z-8" value="" style="sketch=0;points=[[0,0,0],[0.25,0,0],[0.5,0,0],[0.75,0,0],[1,0,0],[0,1,0],[0.25,1,0],[0.5,1,0],[0.75,1,0],[1,1,0],[0,0.25,0],[0,0.5,0],[0,0.75,0],[1,0.25,0],[1,0.5,0],[1,0.75,0]];outlineConnect=0;fontColor=#232F3E;gradientColor=#945DF2;gradientDirection=north;fillColor=#5A30B5;strokeColor=#ffffff;dashed=0;verticalLabelPosition=bottom;verticalAlign=top;align=center;html=1;fontSize=12;fontStyle=0;aspect=fixed;shape=mxgraph.aws4.resourceIcon;resIcon=mxgraph.aws4.cloudfront;" vertex="1" parent="1">
          <mxGeometry x="410" y="360" width="78" height="78" as="geometry" />
        </mxCell>
      </root>
    </mxGraphModel>
  </diagram>
  <diagram id="P4Kc3LCMbADtIgaRD0Bt" name="lambda">
    <mxGraphModel dx="1194" dy="739" grid="1" gridSize="10" guides="1" tooltips="1" connect="1" arrows="1" fold="1" page="1" pageScale="1" pageWidth="850" pageHeight="1100" math="0" shadow="0">
      <root>
        <mxCell id="0" />
        <mxCell id="1" parent="0" />
        <mxCell id="l0eFU2eeG8aAoKGnYykB-3" style="edgeStyle=orthogonalEdgeStyle;rounded=0;orthogonalLoop=1;jettySize=auto;html=1;entryX=0;entryY=0.5;entryDx=0;entryDy=0;entryPerimeter=0;" edge="1" parent="1" source="l0eFU2eeG8aAoKGnYykB-1" target="l0eFU2eeG8aAoKGnYykB-2">
          <mxGeometry relative="1" as="geometry" />
        </mxCell>
        <mxCell id="l0eFU2eeG8aAoKGnYykB-1" value="read config" style="outlineConnect=0;dashed=0;verticalLabelPosition=bottom;verticalAlign=top;align=center;html=1;shape=mxgraph.aws3.lambda_function;fillColor=#F58534;gradientColor=none;" vertex="1" parent="1">
          <mxGeometry x="70" y="400" width="69" height="72" as="geometry" />
        </mxCell>
        <mxCell id="l0eFU2eeG8aAoKGnYykB-5" style="edgeStyle=orthogonalEdgeStyle;rounded=0;orthogonalLoop=1;jettySize=auto;html=1;" edge="1" parent="1" source="l0eFU2eeG8aAoKGnYykB-2" target="l0eFU2eeG8aAoKGnYykB-4">
          <mxGeometry relative="1" as="geometry" />
        </mxCell>
        <mxCell id="l0eFU2eeG8aAoKGnYykB-2" value="aws config" style="sketch=0;points=[[0,0,0],[0.25,0,0],[0.5,0,0],[0.75,0,0],[1,0,0],[0,1,0],[0.25,1,0],[0.5,1,0],[0.75,1,0],[1,1,0],[0,0.25,0],[0,0.5,0],[0,0.75,0],[1,0.25,0],[1,0.5,0],[1,0.75,0]];points=[[0,0,0],[0.25,0,0],[0.5,0,0],[0.75,0,0],[1,0,0],[0,1,0],[0.25,1,0],[0.5,1,0],[0.75,1,0],[1,1,0],[0,0.25,0],[0,0.5,0],[0,0.75,0],[1,0.25,0],[1,0.5,0],[1,0.75,0]];outlineConnect=0;fontColor=#232F3E;gradientColor=#F34482;gradientDirection=north;fillColor=#BC1356;strokeColor=#ffffff;dashed=0;verticalLabelPosition=bottom;verticalAlign=top;align=center;html=1;fontSize=12;fontStyle=0;aspect=fixed;shape=mxgraph.aws4.resourceIcon;resIcon=mxgraph.aws4.config;" vertex="1" parent="1">
          <mxGeometry x="330" y="397" width="78" height="78" as="geometry" />
        </mxCell>
        <mxCell id="l0eFU2eeG8aAoKGnYykB-7" style="edgeStyle=orthogonalEdgeStyle;rounded=0;orthogonalLoop=1;jettySize=auto;html=1;" edge="1" parent="1" source="l0eFU2eeG8aAoKGnYykB-4" target="l0eFU2eeG8aAoKGnYykB-6">
          <mxGeometry relative="1" as="geometry" />
        </mxCell>
        <mxCell id="l0eFU2eeG8aAoKGnYykB-4" value="transform configuration&lt;br&gt;and update" style="outlineConnect=0;dashed=0;verticalLabelPosition=bottom;verticalAlign=top;align=center;html=1;shape=mxgraph.aws3.lambda_function;fillColor=#F58534;gradientColor=none;" vertex="1" parent="1">
          <mxGeometry x="590" y="400" width="69" height="72" as="geometry" />
        </mxCell>
        <mxCell id="l0eFU2eeG8aAoKGnYykB-6" value="" style="sketch=0;points=[[0,0,0],[0.25,0,0],[0.5,0,0],[0.75,0,0],[1,0,0],[0,1,0],[0.25,1,0],[0.5,1,0],[0.75,1,0],[1,1,0],[0,0.25,0],[0,0.5,0],[0,0.75,0],[1,0.25,0],[1,0.5,0],[1,0.75,0]];outlineConnect=0;fontColor=#232F3E;gradientColor=#945DF2;gradientDirection=north;fillColor=#5A30B5;strokeColor=#ffffff;dashed=0;verticalLabelPosition=bottom;verticalAlign=top;align=center;html=1;fontSize=12;fontStyle=0;aspect=fixed;shape=mxgraph.aws4.resourceIcon;resIcon=mxgraph.aws4.cloudfront;" vertex="1" parent="1">
          <mxGeometry x="860" y="397" width="78" height="78" as="geometry" />
        </mxCell>
      </root>
    </mxGraphModel>
  </diagram>
</mxfile>
